<svg width="24" height="7" viewBox="0 0 24 7" fill="none" xmlns="http://www.w3.org/2000/svg">
<g id="zara 1" clip-path="url(#clip0_791_661)">
<g id="Layer 2">
<g id="Layer 1">
<path id="Vector" fill-rule="evenodd" clip-rule="evenodd" d="M5.03821 5.45181C5.03821 5.81478 4.73452 6.10929 4.50594 6.10929H1.92075L5.17264 0.92334H0.824628V1.78241H1.04777C1.04777 1.41944 1.28343 1.12493 1.51202 1.12493H3.74616L0.47522 6.31088H5.19169V5.45181H5.03821Z" fill="black"/>
<path id="Vector_2" fill-rule="evenodd" clip-rule="evenodd" d="M8.82831 6.14231C9.14343 6.14231 9.45039 6.0119 9.38127 5.89128L8.7766 4.69586H6.64967L6.09508 5.89671C6.03685 6.03147 6.28013 6.14449 6.50817 6.14449V6.31293H5.28088V6.14449C5.59655 6.14449 5.8186 6.00647 5.85888 5.8978L8.16432 0.923218L10.6804 5.89128C10.7609 6.02169 10.9961 6.14231 11.383 6.14231V6.31076H8.82831V6.14231ZM6.7422 4.4997L7.66198 2.48324L8.68952 4.4997H6.7422Z" fill="black"/>
<path id="Vector_3" fill-rule="evenodd" clip-rule="evenodd" d="M11.6763 1.13135C12.0507 1.13135 12.3593 1.22753 12.3593 1.34436C12.3593 2.26809 12.3593 5.88695 12.3593 5.88695C12.3593 6.0103 12.054 6.14777 11.6801 6.14777V6.31078H14.1809V6.15918C13.8092 6.15918 13.5082 6.01084 13.5082 5.8875V1.08625H14.2293C14.9238 1.08625 15.4866 1.66223 15.4866 2.31591C15.4866 2.96958 14.9227 3.49883 14.2283 3.49883H13.7292C13.7292 3.49883 15.4196 6.05268 15.4218 6.05268C15.4687 6.13242 15.5023 6.21922 15.5214 6.3097H17.3435V6.15918C16.9931 6.15918 16.8096 6.01356 16.7079 5.8875L15.0806 3.76834C15.8616 3.71726 16.4662 3.08641 16.4662 2.33818C16.4662 1.55627 15.7941 0.925415 14.9635 0.925415H11.6763V1.13135Z" fill="black"/>
<path id="Vector_4" fill-rule="evenodd" clip-rule="evenodd" d="M21.0618 6.14775C21.3769 6.14775 21.6833 6.01191 21.6147 5.89128L21.0101 4.69586H18.8831L18.3269 5.89454C18.2687 6.02929 18.512 6.15916 18.74 6.15916V6.31076H17.5149V6.14775C17.83 6.14775 18.0515 6.0043 18.0923 5.89562L20.3978 0.923218L22.9139 5.89128C22.9939 6.02169 23.2301 6.15373 23.6165 6.15373V6.31076H21.0618V6.14775ZM18.9757 4.4997L19.8954 2.48324L20.9235 4.4997H18.9757Z" fill="black"/>
</g>
</g>
</g>
<defs>
<clipPath id="clip0_791_661">
<rect width="23.141" height="5.38754" fill="white" transform="translate(0.47522 0.923096)"/>
</clipPath>
</defs>
</svg>
